<svg width="38" height="50" viewBox="0 0 38 50" fill="none" xmlns="http://www.w3.org/2000/svg">
<path d="M35.4584 16.809C38.288 15.6672 38.5197 11.7507 35.8446 10.2832L17.9127 0.446104C16.3522 -0.409942 14.4009 -0.00356856 13.3119 1.40424L0.756599 17.6349C-0.578839 19.3613 -0.0927086 21.8682 1.79121 22.9703L4.32004 24.4497C5.77356 25.3 6.44804 27.0408 5.94682 28.6485L0.966238 44.6237C-0.131641 48.1451 4.12753 50.8582 6.85486 48.3748L26.163 30.7932C27.6607 29.4294 27.406 27.0043 25.6576 25.9815C23.5046 24.722 23.7371 21.5387 26.0501 20.6053L35.4584 16.809Z" fill="url(#paint0_linear_202_42)"/>
<defs>
<linearGradient id="paint0_linear_202_42" x1="38.372" y1="11.5181" x2="11.6684" y2="-1.23546" gradientUnits="userSpaceOnUse">
<stop stop-color="#FF6432"/>
<stop offset="1" stop-color="#FFA228"/>
</linearGradient>
</defs>
</svg>
